<?xml version="1.0" encoding="UTF-8"?>
<svg id="Layer_1" data-name="Layer 1" xmlns="http://www.w3.org/2000/svg" xmlns:xlink="http://www.w3.org/1999/xlink" viewBox="0 0 1636.3 1076.13">
  <defs>
    <style>
      .cls-1 {
        fill: none;
      }

      .cls-2 {
        fill: #231f20;
      }

      .cls-3 {
        fill: #171717;
      }

      .cls-4 {
        clip-path: url(#clippath);
      }
    </style>
    <clipPath id="clippath">
      <path class="cls-1" d="M319.04,861.62c-65.49-27.17-122.75-70.18-167-124.25,17.8-100.74,44.12-180.27,78.26-236.43,28.74-47.28,63.3-78.48,102.72-92.73,46.5-16.81,92.99-7.28,127.07,5.88-1.29,1.71-2.77,3.72-4.39,6.01-2.29.18-4.61.39-6.96.64-56.79,5.94-102.71,27.94-132.81,63.63-28.53,33.84-43.67,80.23-44.98,137.89-1.49,65.07,14.69,145.55,48.09,239.36ZM329.68,398.79c43.91-15.86,94.68-11.96,146.83,11.29,2.16.96,4.28,1.94,6.35,2.92,2.56-1.17,4.85-2.17,6.82-3-22.94-28.43-58.44-59.94-107.12-68.63-41.27-7.36-86.8,2.38-135.33,28.95-57.66,31.57-120.23,87.3-186.02,165.67,11.5,71.06,40.55,136.24,82.56,190.95,17.97-97.9,44.2-175.65,78.01-231.23,29.96-49.28,66.27-81.89,107.9-96.92ZM376.81,707.27c-27.69-50.59-37.78-98.33-29.99-141.9,8.22-45.96,36.99-87.98,83.2-121.52,1.91-1.39,3.82-2.74,5.71-4.04.26-2.8.54-5.28.8-7.4-36.1,5.65-81.13,20.64-112.99,58.45-27.01,32.06-41.34,76.36-42.6,131.68-1.48,65.73,15.5,147.82,50.5,244.01,46.96,17.77,97.88,27.5,151.07,27.5,18.83,0,37.37-1.22,55.56-3.59-75.79-64.52-130.02-126.12-161.26-183.19ZM242.47,361.52c50.59-27.69,98.33-37.78,141.91-29.98,45.95,8.22,87.97,36.99,121.51,83.19,1.39,1.91,2.74,3.82,4.04,5.71,2.8.27,5.28.54,7.4.81-5.65-36.1-20.64-81.13-58.45-113-32.06-27.01-76.36-41.34-131.67-42.59-65.73-1.49-147.82,15.5-244.01,50.49-17.78,46.96-27.51,97.88-27.51,151.08,0,18.83,1.22,37.37,3.59,55.55,64.52-75.79,126.12-130.02,183.19-161.26ZM327.48,255.66c57.66,1.32,104.05,16.45,137.89,44.99,35.69,30.1,57.69,76.02,63.64,132.8.25,2.35.46,4.67.64,6.96,2.29,1.63,4.29,3.11,6,4.4,13.16-34.08,22.7-80.57,5.88-127.07-14.25-39.43-45.45-73.99-92.73-102.73-56.16-34.14-135.69-60.46-236.43-78.25-54.07,44.25-97.08,101.51-124.25,167,93.81-33.41,174.29-49.6,239.36-48.1ZM550.96,314.39c15.85,43.91,11.95,94.69-11.3,146.83-.96,2.16-1.94,4.28-2.92,6.35,1.16,2.56,2.17,4.85,3,6.83,28.43-22.94,59.94-58.44,68.63-107.13,7.37-41.26-2.37-86.79-28.95-135.33-31.57-57.65-87.3-120.24-165.68-186.02-71.05,11.5-136.22,40.55-190.93,82.56,97.89,17.98,175.64,44.21,231.22,78.01,49.28,29.97,81.89,66.27,96.93,107.9ZM414.07,620.06c-15.86-43.9-11.95-94.68,11.29-146.82.96-2.16,1.94-4.28,2.93-6.36-1.17-2.56-2.17-4.85-3.01-6.82-28.43,22.94-59.93,58.44-68.62,107.12-7.37,41.27,2.37,86.8,28.94,135.33,31.57,57.66,87.31,120.23,165.68,186.02,71.06-11.5,136.23-40.55,190.94-82.56-97.9-17.97-175.64-44.2-231.23-78-49.28-29.97-81.88-66.27-96.92-107.91ZM588.22,227.18c27.69,50.59,37.78,98.34,29.98,141.91-8.22,45.96-36.99,87.98-83.19,121.51-1.91,1.39-3.82,2.74-5.71,4.04-.26,2.8-.54,5.28-.8,7.4,36.1-5.65,81.13-20.64,112.99-58.45,27.01-32.05,41.34-76.35,42.59-131.67,1.49-65.73-15.5-147.81-50.49-244-46.96-17.79-97.88-27.52-151.08-27.52-18.83,0-37.37,1.22-55.56,3.59,75.8,64.52,130.03,126.11,161.27,183.19ZM637.54,678.79c-57.65-1.31-104.05-16.44-137.88-44.98-35.69-30.1-57.7-76.02-63.64-132.81-.25-2.35-.46-4.67-.64-6.96-2.29-1.63-4.3-3.11-6.01-4.4-13.15,34.07-22.69,80.57-5.87,127.08,14.25,39.42,45.45,73.99,92.73,102.73,56.16,34.13,135.69,60.45,236.42,78.25,54.07-44.25,97.09-101.5,124.25-166.99-89.87,31.99-167.51,48.17-231.08,48.18-2.79,0-5.54-.03-8.28-.1ZM694.08,312.2c-1.31,57.66-16.45,104.05-44.99,137.88-30.1,35.69-76.02,57.7-132.8,63.64-2.35.24-4.66.46-6.95.64-1.64,2.29-3.12,4.3-4.42,6.01,34.08,13.15,80.59,22.69,127.09,5.88,39.42-14.26,73.98-45.46,102.72-92.74,34.14-56.16,60.46-135.68,78.25-236.41-44.24-54.08-101.5-97.09-166.99-124.26,33.4,93.82,49.57,174.29,48.09,239.36ZM635.35,535.67c-17.69,6.39-36.51,9.57-56.07,9.57-28.98,0-59.62-6.98-90.76-20.86-2.16-.96-4.28-1.94-6.36-2.93-2.56,1.18-4.85,2.18-6.82,3.01,22.94,28.43,58.44,59.94,107.13,68.63,41.27,7.36,86.8-2.38,135.33-28.95,57.65-31.57,120.24-87.31,186.02-165.68-11.5-71.05-40.55-136.22-82.56-190.93-17.98,97.89-44.21,175.63-78.01,231.22-29.97,49.28-66.27,81.89-107.9,96.92ZM905.75,411.66c-64.53,75.81-126.11,130.04-183.19,161.28-39.55,21.64-77.36,32.53-112.79,32.53-9.9,0-19.6-.85-29.12-2.55-45.96-8.22-87.97-36.99-121.51-83.19-1.39-1.91-2.73-3.82-4.03-5.71-2.8-.27-5.28-.54-7.41-.8,5.65,36.09,20.64,81.12,58.45,112.98,32.05,27.01,76.35,41.35,131.67,42.6,65.74,1.48,147.81-15.5,244.01-50.5,17.78-46.96,27.51-97.88,27.51-151.07,0-18.83-1.22-37.38-3.59-55.57Z"/>
    </clipPath>
  </defs>
  <g id="Logo_With_Text" data-name="Logo With Text">
    <path class="cls-3" d="M1199.76,138.45h-267.83c4.96,1.45,11.36,3.25,15.2,4.35,42.29,12.14,90.51,40.33,120.76,69.57,3.69,3.57,8.1,7.48,11.5,11.31h106.17c117.71,0,211.08,98.49,211.08,226.36,0,150.57-106.56,249.07-258.78,249.07h-82.13c-2.23,1.98-4.62,3.85-6.93,5.7-36.83,29.38-82.23,56.09-129.69,71-8.22,2.58-22.11,6.71-30.64,8.54h263.6c109.6,0,189.78-42.62,253.71-95.65,74.07-60.62,100.47-166.7,100.47-247.19,0-167.63-122.79-303.06-306.48-303.06Z"/>
    <path class="cls-3" d="M1153.26,441.51c0,80.49-26.4,186.57-100.47,247.19-4.24,3.52-8.56,6.99-12.95,10.41-61.75,48.09-138.43,85.24-240.76,85.24h-217.86c39.58-13.08,79.59-34.98,112.73-64.56,7.18-6.4,14.62-13.53,20.95-20.68h69.98c152.22,0,258.78-98.5,258.78-249.07,0-127.87-93.37-226.36-211.08-226.36h-125.4c-3.08-3.26-6.1-6.6-9.46-9.58-48.5-42.94-109.26-68.74-163.43-75.65h312.49c89.91,0,165.23,32.45,218.69,85.23,55.78,55.06,87.79,132.25,87.79,217.83Z"/>
    <g id="Clipped_O" data-name="Clipped O">
      <g class="cls-4">
        <path class="cls-3" d="M482.52,144.41c-172.65,0-312.62,144.53-312.62,322.82s139.97,322.81,312.62,322.81,312.62-144.53,312.62-322.81-139.96-322.82-312.62-322.82ZM482.52,698.89c-109.98,0-199.14-103.72-199.14-231.66s89.16-231.66,199.14-231.66,199.14,103.71,199.14,231.66-89.16,231.66-199.14,231.66Z"/>
      </g>
    </g>
    <path class="cls-3" d="M506.52,464.15c0,9.43-5.49,17.57-13.44,21.42l-10.33,132.29-10.33-132.3c-7.95-3.84-13.44-11.98-13.44-21.41s5.95-18.23,14.43-21.86l9.34-186.26,9.34,186.26c8.49,3.63,14.43,12.05,14.43,21.86Z"/>
  </g>
  <g id="One_Day_Dance" data-name="One Day Dance">
    <path class="cls-2" d="M304.23,970.85c-29.78,0-46.06-25.43-46.06-50.56,0-33.56,24.26-51.72,45.04-51.72,30.51,0,47.36,24.7,47.36,51.58s-19.9,50.71-46.35,50.71ZM335.46,919.56c0-22.23-13.51-38.21-30.95-38.21s-31.24,15.98-31.24,38.36,13.8,38.36,31.24,38.36,30.95-16.42,30.95-38.5Z"/>
    <path class="cls-2" d="M389.37,870.17l33.13,52.45c.87,1.45,13.51,21.79,16.13,27.6l.29-.29c-.29-6.25-.73-14.53-.73-19.47v-60.29h13.37v99.09h-14.24l-35.16-55.79c-1.45-2.32-4.65-7.99-9.59-15.98-1.31-2.18-3.05-5.23-4.07-7.41h-.29c0,5.38.58,11.33.58,16.13v63.06h-13.95v-99.09h14.53Z"/>
    <path class="cls-2" d="M545.65,870.17v13.08h-49.83v27.75h47.65v12.5h-47.65v32.69h49.83v13.08h-63.78v-99.09h63.78Z"/>
    <path class="cls-2" d="M665.52,870.17c26.3,0,43.88,20.78,43.88,46.49,0,12.35-3.78,28.62-14.38,37.92-9.15,8.14-20.63,14.67-36.32,14.67h-34.87v-99.09h41.7ZM656.66,956.18c21.79,0,37.05-15.11,37.05-38.21,0-19.61-13.37-34.72-30.22-34.72h-25.72v72.93h18.89Z"/>
    <path class="cls-2" d="M771.52,870.17l37.19,99.09h-16.27l-9.88-29.35h-35.74l-9.88,29.35h-16.13l36.47-99.09h14.24ZM764.26,887.75l-13.22,39.08h27.02l-13.51-39.08h-.29Z"/>
    <path class="cls-2" d="M830.33,870.17l24.12,41.26,23.97-41.26h17.87l-35.01,53.9v45.18h-13.95v-45.18l-34.58-53.9h17.58Z"/>
    <path class="cls-2" d="M1001.02,870.17c26.3,0,43.88,20.78,43.88,46.49,0,12.35-3.78,28.62-14.38,37.92-9.15,8.14-20.63,14.67-36.32,14.67h-34.87v-99.09h41.7ZM992.16,956.18c21.79,0,37.05-15.11,37.05-38.21,0-19.61-13.37-34.72-30.22-34.72h-25.72v72.93h18.89Z"/>
    <path class="cls-2" d="M1103.33,870.17l37.19,99.09h-16.27l-9.88-29.35h-35.74l-9.88,29.35h-16.13l36.47-99.09h14.24ZM1096.07,887.75l-13.22,39.08h27.02l-13.51-39.08h-.29Z"/>
    <path class="cls-2" d="M1180.33,870.17l33.13,52.45c.87,1.45,13.51,21.79,16.13,27.6l.29-.29c-.29-6.25-.73-14.53-.73-19.47v-60.29h13.37v99.09h-14.24l-35.16-55.79c-1.45-2.32-4.65-7.99-9.59-15.98-1.31-2.18-3.05-5.23-4.07-7.41h-.29c0,5.38.58,11.33.58,16.13v63.06h-13.95v-99.09h14.53Z"/>
    <path class="cls-2" d="M1342.99,893.85c-9.88-8.86-18.6-12.5-28.33-12.5-19.18,0-33.13,18.45-33.13,39.08s13.8,37.19,31.24,37.19c10.03,0,19.9-3.92,30.22-12.49v16.42c-10.61,6.39-20.63,9.3-30.66,9.3-26.01,0-45.33-21.65-45.33-50.42,0-30.22,20.34-51.87,47.22-51.87,8.57,0,17.73,2.03,28.77,8.86v16.42Z"/>
    <path class="cls-2" d="M1435.1,870.17v13.08h-49.83v27.75h47.65v12.5h-47.65v32.69h49.83v13.08h-63.78v-99.09h63.78Z"/>
  </g>
</svg>